<mxfile host="65bd71144e">
    <diagram id="C5RBs43oDa-KdzZeNtuy" name="Page-1">
        <mxGraphModel dx="1353" dy="614" grid="1" gridSize="10" guides="1" tooltips="1" connect="1" arrows="1" fold="1" page="1" pageScale="1" pageWidth="827" pageHeight="1169" math="0" shadow="0">
            <root>
                <mxCell id="WIyWlLk6GJQsqaUBKTNV-0"/>
                <mxCell id="WIyWlLk6GJQsqaUBKTNV-1" parent="WIyWlLk6GJQsqaUBKTNV-0"/>
                <mxCell id="YGOA_YTKVvEjFg83ZBXf-83" value="" style="group;sketch=1;curveFitting=1;jiggle=2;" parent="WIyWlLk6GJQsqaUBKTNV-1" vertex="1" connectable="0">
                    <mxGeometry x="1750" y="130" width="230" height="730" as="geometry"/>
                </mxCell>
                <mxCell id="YGOA_YTKVvEjFg83ZBXf-72" value="" style="rounded=0;whiteSpace=wrap;html=1;fillColor=none;sketch=1;curveFitting=1;jiggle=2;" parent="YGOA_YTKVvEjFg83ZBXf-83" vertex="1">
                    <mxGeometry width="230" height="730" as="geometry"/>
                </mxCell>
                <mxCell id="YGOA_YTKVvEjFg83ZBXf-60" value="" style="edgeStyle=orthogonalEdgeStyle;rounded=0;orthogonalLoop=1;jettySize=auto;html=1;sketch=1;curveFitting=1;jiggle=2;" parent="YGOA_YTKVvEjFg83ZBXf-83" source="YGOA_YTKVvEjFg83ZBXf-57" target="YGOA_YTKVvEjFg83ZBXf-59" edge="1">
                    <mxGeometry relative="1" as="geometry"/>
                </mxCell>
                <mxCell id="YGOA_YTKVvEjFg83ZBXf-57" value="符号处理" style="rounded=0;whiteSpace=wrap;html=1;sketch=1;curveFitting=1;jiggle=2;" parent="YGOA_YTKVvEjFg83ZBXf-83" vertex="1">
                    <mxGeometry x="40" y="20" width="120" height="30" as="geometry"/>
                </mxCell>
                <mxCell id="YGOA_YTKVvEjFg83ZBXf-62" value="" style="edgeStyle=orthogonalEdgeStyle;rounded=0;orthogonalLoop=1;jettySize=auto;html=1;sketch=1;curveFitting=1;jiggle=2;" parent="YGOA_YTKVvEjFg83ZBXf-83" source="YGOA_YTKVvEjFg83ZBXf-59" target="YGOA_YTKVvEjFg83ZBXf-61" edge="1">
                    <mxGeometry relative="1" as="geometry"/>
                </mxCell>
                <mxCell id="YGOA_YTKVvEjFg83ZBXf-59" value="简繁体转化" style="rounded=0;whiteSpace=wrap;html=1;sketch=1;curveFitting=1;jiggle=2;" parent="YGOA_YTKVvEjFg83ZBXf-83" vertex="1">
                    <mxGeometry x="40" y="93" width="120" height="30" as="geometry"/>
                </mxCell>
                <mxCell id="YGOA_YTKVvEjFg83ZBXf-65" value="" style="edgeStyle=orthogonalEdgeStyle;rounded=0;orthogonalLoop=1;jettySize=auto;html=1;sketch=1;curveFitting=1;jiggle=2;" parent="YGOA_YTKVvEjFg83ZBXf-83" source="YGOA_YTKVvEjFg83ZBXf-61" target="YGOA_YTKVvEjFg83ZBXf-64" edge="1">
                    <mxGeometry relative="1" as="geometry"/>
                </mxCell>
                <mxCell id="YGOA_YTKVvEjFg83ZBXf-61" value="全角转半角" style="rounded=0;whiteSpace=wrap;html=1;sketch=1;curveFitting=1;jiggle=2;" parent="YGOA_YTKVvEjFg83ZBXf-83" vertex="1">
                    <mxGeometry x="40" y="167" width="120" height="30" as="geometry"/>
                </mxCell>
                <mxCell id="YGOA_YTKVvEjFg83ZBXf-67" value="" style="edgeStyle=orthogonalEdgeStyle;rounded=0;orthogonalLoop=1;jettySize=auto;html=1;sketch=1;curveFitting=1;jiggle=2;" parent="YGOA_YTKVvEjFg83ZBXf-83" source="YGOA_YTKVvEjFg83ZBXf-64" target="YGOA_YTKVvEjFg83ZBXf-66" edge="1">
                    <mxGeometry relative="1" as="geometry"/>
                </mxCell>
                <mxCell id="YGOA_YTKVvEjFg83ZBXf-64" value="疑问表示处理" style="rounded=0;whiteSpace=wrap;html=1;sketch=1;curveFitting=1;jiggle=2;" parent="YGOA_YTKVvEjFg83ZBXf-83" vertex="1">
                    <mxGeometry x="40" y="240" width="120" height="30" as="geometry"/>
                </mxCell>
                <mxCell id="YGOA_YTKVvEjFg83ZBXf-69" value="" style="edgeStyle=orthogonalEdgeStyle;rounded=0;orthogonalLoop=1;jettySize=auto;html=1;sketch=1;curveFitting=1;jiggle=2;" parent="YGOA_YTKVvEjFg83ZBXf-83" source="YGOA_YTKVvEjFg83ZBXf-66" target="YGOA_YTKVvEjFg83ZBXf-68" edge="1">
                    <mxGeometry relative="1" as="geometry"/>
                </mxCell>
                <mxCell id="YGOA_YTKVvEjFg83ZBXf-66" value="term权重计算" style="rounded=0;whiteSpace=wrap;html=1;sketch=1;curveFitting=1;jiggle=2;" parent="YGOA_YTKVvEjFg83ZBXf-83" vertex="1">
                    <mxGeometry x="40" y="313" width="120" height="30" as="geometry"/>
                </mxCell>
                <mxCell id="YGOA_YTKVvEjFg83ZBXf-71" value="" style="edgeStyle=orthogonalEdgeStyle;rounded=0;orthogonalLoop=1;jettySize=auto;html=1;sketch=1;curveFitting=1;jiggle=2;" parent="YGOA_YTKVvEjFg83ZBXf-83" source="YGOA_YTKVvEjFg83ZBXf-68" target="YGOA_YTKVvEjFg83ZBXf-70" edge="1">
                    <mxGeometry relative="1" as="geometry"/>
                </mxCell>
                <mxCell id="YGOA_YTKVvEjFg83ZBXf-68" value="同义词生成" style="rounded=0;whiteSpace=wrap;html=1;sketch=1;curveFitting=1;jiggle=2;" parent="YGOA_YTKVvEjFg83ZBXf-83" vertex="1">
                    <mxGeometry x="40" y="387" width="120" height="30" as="geometry"/>
                </mxCell>
                <mxCell id="YGOA_YTKVvEjFg83ZBXf-74" value="" style="edgeStyle=orthogonalEdgeStyle;rounded=0;orthogonalLoop=1;jettySize=auto;html=1;sketch=1;curveFitting=1;jiggle=2;" parent="YGOA_YTKVvEjFg83ZBXf-83" source="YGOA_YTKVvEjFg83ZBXf-70" target="YGOA_YTKVvEjFg83ZBXf-73" edge="1">
                    <mxGeometry relative="1" as="geometry"/>
                </mxCell>
                <mxCell id="YGOA_YTKVvEjFg83ZBXf-70" value="二次切分" style="rounded=0;whiteSpace=wrap;html=1;sketch=1;curveFitting=1;jiggle=2;" parent="YGOA_YTKVvEjFg83ZBXf-83" vertex="1">
                    <mxGeometry x="40" y="460" width="120" height="30" as="geometry"/>
                </mxCell>
                <mxCell id="YGOA_YTKVvEjFg83ZBXf-77" value="" style="edgeStyle=orthogonalEdgeStyle;rounded=0;orthogonalLoop=1;jettySize=auto;html=1;sketch=1;curveFitting=1;jiggle=2;" parent="YGOA_YTKVvEjFg83ZBXf-83" source="YGOA_YTKVvEjFg83ZBXf-73" target="YGOA_YTKVvEjFg83ZBXf-76" edge="1">
                    <mxGeometry relative="1" as="geometry"/>
                </mxCell>
                <mxCell id="YGOA_YTKVvEjFg83ZBXf-73" value="词与同义词拼接" style="rounded=0;whiteSpace=wrap;html=1;sketch=1;curveFitting=1;jiggle=2;" parent="YGOA_YTKVvEjFg83ZBXf-83" vertex="1">
                    <mxGeometry x="40" y="533" width="120" height="30" as="geometry"/>
                </mxCell>
                <mxCell id="YGOA_YTKVvEjFg83ZBXf-79" value="" style="edgeStyle=orthogonalEdgeStyle;rounded=0;orthogonalLoop=1;jettySize=auto;html=1;sketch=1;curveFitting=1;jiggle=2;" parent="YGOA_YTKVvEjFg83ZBXf-83" source="YGOA_YTKVvEjFg83ZBXf-76" target="YGOA_YTKVvEjFg83ZBXf-78" edge="1">
                    <mxGeometry relative="1" as="geometry"/>
                </mxCell>
                <mxCell id="YGOA_YTKVvEjFg83ZBXf-76" value="生成ES查询条件" style="rounded=0;whiteSpace=wrap;html=1;sketch=1;curveFitting=1;jiggle=2;" parent="YGOA_YTKVvEjFg83ZBXf-83" vertex="1">
                    <mxGeometry x="40" y="607" width="120" height="30" as="geometry"/>
                </mxCell>
                <mxCell id="YGOA_YTKVvEjFg83ZBXf-78" value="生成查询结果" style="rounded=0;whiteSpace=wrap;html=1;sketch=1;curveFitting=1;jiggle=2;" parent="YGOA_YTKVvEjFg83ZBXf-83" vertex="1">
                    <mxGeometry x="40" y="680" width="120" height="30" as="geometry"/>
                </mxCell>
                <mxCell id="YGOA_YTKVvEjFg83ZBXf-80" value="ES&lt;div&gt;检&lt;/div&gt;&lt;div&gt;索&lt;/div&gt;" style="rounded=0;whiteSpace=wrap;html=1;fillColor=none;strokeColor=none;sketch=1;curveFitting=1;jiggle=2;" parent="YGOA_YTKVvEjFg83ZBXf-83" vertex="1">
                    <mxGeometry x="184" y="440" width="40" height="60" as="geometry"/>
                </mxCell>
                <mxCell id="YGOA_YTKVvEjFg83ZBXf-40" value="" style="rounded=0;whiteSpace=wrap;html=1;fillColor=none;sketch=1;curveFitting=1;jiggle=2;" parent="WIyWlLk6GJQsqaUBKTNV-1" vertex="1">
                    <mxGeometry x="979" y="150" width="191" height="680" as="geometry"/>
                </mxCell>
                <mxCell id="YGOA_YTKVvEjFg83ZBXf-19" value="" style="edgeStyle=orthogonalEdgeStyle;rounded=0;orthogonalLoop=1;jettySize=auto;html=1;sketch=1;curveFitting=1;jiggle=2;" parent="WIyWlLk6GJQsqaUBKTNV-1" source="YGOA_YTKVvEjFg83ZBXf-2" target="YGOA_YTKVvEjFg83ZBXf-18" edge="1">
                    <mxGeometry relative="1" as="geometry"/>
                </mxCell>
                <mxCell id="YGOA_YTKVvEjFg83ZBXf-2" value="拼接历史对话内容" style="rounded=0;whiteSpace=wrap;html=1;sketch=1;curveFitting=1;jiggle=2;" parent="WIyWlLk6GJQsqaUBKTNV-1" vertex="1">
                    <mxGeometry x="780" y="120" width="120" height="30" as="geometry"/>
                </mxCell>
                <mxCell id="YGOA_YTKVvEjFg83ZBXf-17" value="" style="edgeStyle=orthogonalEdgeStyle;rounded=0;orthogonalLoop=1;jettySize=auto;html=1;sketch=1;curveFitting=1;jiggle=2;" parent="WIyWlLk6GJQsqaUBKTNV-1" source="YGOA_YTKVvEjFg83ZBXf-16" target="YGOA_YTKVvEjFg83ZBXf-2" edge="1">
                    <mxGeometry relative="1" as="geometry"/>
                </mxCell>
                <mxCell id="YGOA_YTKVvEjFg83ZBXf-16" value="chat" style="rounded=0;whiteSpace=wrap;html=1;sketch=1;curveFitting=1;jiggle=2;" parent="WIyWlLk6GJQsqaUBKTNV-1" vertex="1">
                    <mxGeometry x="780" y="50" width="120" height="30" as="geometry"/>
                </mxCell>
                <mxCell id="YGOA_YTKVvEjFg83ZBXf-21" value="" style="edgeStyle=orthogonalEdgeStyle;rounded=0;orthogonalLoop=1;jettySize=auto;html=1;sketch=1;curveFitting=1;jiggle=2;" parent="WIyWlLk6GJQsqaUBKTNV-1" source="YGOA_YTKVvEjFg83ZBXf-18" target="YGOA_YTKVvEjFg83ZBXf-20" edge="1">
                    <mxGeometry relative="1" as="geometry"/>
                </mxCell>
                <mxCell id="YGOA_YTKVvEjFg83ZBXf-18" value="获取&lt;span style=&quot;background-color: initial;&quot;&gt;Conversation&lt;/span&gt;&lt;div&gt;&lt;span style=&quot;background-color: initial;&quot;&gt;信息&lt;/span&gt;&lt;/div&gt;" style="rounded=0;whiteSpace=wrap;html=1;sketch=1;curveFitting=1;jiggle=2;fillColor=default;" parent="WIyWlLk6GJQsqaUBKTNV-1" vertex="1">
                    <mxGeometry x="780" y="190" width="120" height="30" as="geometry"/>
                </mxCell>
                <mxCell id="YGOA_YTKVvEjFg83ZBXf-23" value="" style="edgeStyle=orthogonalEdgeStyle;rounded=0;orthogonalLoop=1;jettySize=auto;html=1;sketch=1;curveFitting=1;jiggle=2;" parent="WIyWlLk6GJQsqaUBKTNV-1" source="YGOA_YTKVvEjFg83ZBXf-20" target="YGOA_YTKVvEjFg83ZBXf-22" edge="1">
                    <mxGeometry relative="1" as="geometry"/>
                </mxCell>
                <mxCell id="YGOA_YTKVvEjFg83ZBXf-20" value="补全对话&lt;div&gt;（新一轮）&lt;/div&gt;" style="rounded=0;whiteSpace=wrap;html=1;sketch=1;curveFitting=1;jiggle=2;" parent="WIyWlLk6GJQsqaUBKTNV-1" vertex="1">
                    <mxGeometry x="780" y="260" width="120" height="30" as="geometry"/>
                </mxCell>
                <mxCell id="YGOA_YTKVvEjFg83ZBXf-47" value="" style="edgeStyle=orthogonalEdgeStyle;rounded=0;orthogonalLoop=1;jettySize=auto;html=1;sketch=1;curveFitting=1;jiggle=2;" parent="WIyWlLk6GJQsqaUBKTNV-1" source="YGOA_YTKVvEjFg83ZBXf-22" target="YGOA_YTKVvEjFg83ZBXf-46" edge="1">
                    <mxGeometry relative="1" as="geometry"/>
                </mxCell>
                <mxCell id="YGOA_YTKVvEjFg83ZBXf-22" value="获取Dialog信息" style="rounded=0;whiteSpace=wrap;html=1;sketch=1;curveFitting=1;jiggle=2;" parent="WIyWlLk6GJQsqaUBKTNV-1" vertex="1">
                    <mxGeometry x="780" y="330" width="120" height="30" as="geometry"/>
                </mxCell>
                <mxCell id="YGOA_YTKVvEjFg83ZBXf-27" value="" style="edgeStyle=orthogonalEdgeStyle;rounded=0;orthogonalLoop=1;jettySize=auto;html=1;sketch=1;curveFitting=1;jiggle=2;" parent="WIyWlLk6GJQsqaUBKTNV-1" source="YGOA_YTKVvEjFg83ZBXf-24" target="YGOA_YTKVvEjFg83ZBXf-26" edge="1">
                    <mxGeometry relative="1" as="geometry"/>
                </mxCell>
                <mxCell id="YGOA_YTKVvEjFg83ZBXf-24" value="校验对话格式有效性" style="rounded=0;whiteSpace=wrap;html=1;sketch=1;curveFitting=1;jiggle=2;" parent="WIyWlLk6GJQsqaUBKTNV-1" vertex="1">
                    <mxGeometry x="1019" y="180" width="120" height="30" as="geometry"/>
                </mxCell>
                <mxCell id="YGOA_YTKVvEjFg83ZBXf-29" value="" style="edgeStyle=orthogonalEdgeStyle;rounded=0;orthogonalLoop=1;jettySize=auto;html=1;sketch=1;curveFitting=1;jiggle=2;" parent="WIyWlLk6GJQsqaUBKTNV-1" source="YGOA_YTKVvEjFg83ZBXf-26" target="YGOA_YTKVvEjFg83ZBXf-28" edge="1">
                    <mxGeometry relative="1" as="geometry"/>
                </mxCell>
                <mxCell id="YGOA_YTKVvEjFg83ZBXf-26" value="获取llm&lt;div&gt;设置token数&lt;/div&gt;" style="rounded=0;whiteSpace=wrap;html=1;sketch=1;curveFitting=1;jiggle=2;" parent="WIyWlLk6GJQsqaUBKTNV-1" vertex="1">
                    <mxGeometry x="1019" y="250" width="120" height="50" as="geometry"/>
                </mxCell>
                <mxCell id="YGOA_YTKVvEjFg83ZBXf-31" value="" style="edgeStyle=orthogonalEdgeStyle;rounded=0;orthogonalLoop=1;jettySize=auto;html=1;sketch=1;curveFitting=1;jiggle=2;" parent="WIyWlLk6GJQsqaUBKTNV-1" source="YGOA_YTKVvEjFg83ZBXf-28" target="YGOA_YTKVvEjFg83ZBXf-30" edge="1">
                    <mxGeometry relative="1" as="geometry"/>
                </mxCell>
                <mxCell id="YGOA_YTKVvEjFg83ZBXf-28" value="获取llm&lt;div&gt;设置token数&lt;/div&gt;" style="rounded=0;whiteSpace=wrap;html=1;sketch=1;curveFitting=1;jiggle=2;" parent="WIyWlLk6GJQsqaUBKTNV-1" vertex="1">
                    <mxGeometry x="1019" y="335" width="120" height="30" as="geometry"/>
                </mxCell>
                <mxCell id="YGOA_YTKVvEjFg83ZBXf-33" value="" style="edgeStyle=orthogonalEdgeStyle;rounded=0;orthogonalLoop=1;jettySize=auto;html=1;sketch=1;curveFitting=1;jiggle=2;" parent="WIyWlLk6GJQsqaUBKTNV-1" source="YGOA_YTKVvEjFg83ZBXf-30" target="YGOA_YTKVvEjFg83ZBXf-32" edge="1">
                    <mxGeometry relative="1" as="geometry"/>
                </mxCell>
                <mxCell id="YGOA_YTKVvEjFg83ZBXf-30" value="获取知识库" style="rounded=0;whiteSpace=wrap;html=1;sketch=1;curveFitting=1;jiggle=2;" parent="WIyWlLk6GJQsqaUBKTNV-1" vertex="1">
                    <mxGeometry x="1019" y="400" width="120" height="30" as="geometry"/>
                </mxCell>
                <mxCell id="YGOA_YTKVvEjFg83ZBXf-35" value="" style="edgeStyle=orthogonalEdgeStyle;rounded=0;orthogonalLoop=1;jettySize=auto;html=1;sketch=1;curveFitting=1;jiggle=2;" parent="WIyWlLk6GJQsqaUBKTNV-1" source="YGOA_YTKVvEjFg83ZBXf-32" target="YGOA_YTKVvEjFg83ZBXf-34" edge="1">
                    <mxGeometry relative="1" as="geometry"/>
                </mxCell>
                <mxCell id="YGOA_YTKVvEjFg83ZBXf-109" style="rounded=0;orthogonalLoop=1;jettySize=auto;html=1;exitX=1;exitY=0.5;exitDx=0;exitDy=0;sketch=1;curveFitting=1;jiggle=2;" parent="WIyWlLk6GJQsqaUBKTNV-1" source="YGOA_YTKVvEjFg83ZBXf-32" edge="1">
                    <mxGeometry relative="1" as="geometry">
                        <mxPoint x="1320" y="370" as="targetPoint"/>
                    </mxGeometry>
                </mxCell>
                <mxCell id="YGOA_YTKVvEjFg83ZBXf-32" value="检索知识库" style="rounded=0;whiteSpace=wrap;html=1;sketch=1;curveFitting=1;jiggle=2;" parent="WIyWlLk6GJQsqaUBKTNV-1" vertex="1">
                    <mxGeometry x="1019" y="480" width="120" height="30" as="geometry"/>
                </mxCell>
                <mxCell id="YGOA_YTKVvEjFg83ZBXf-37" value="" style="edgeStyle=orthogonalEdgeStyle;rounded=0;orthogonalLoop=1;jettySize=auto;html=1;sketch=1;curveFitting=1;jiggle=2;" parent="WIyWlLk6GJQsqaUBKTNV-1" source="YGOA_YTKVvEjFg83ZBXf-34" target="YGOA_YTKVvEjFg83ZBXf-36" edge="1">
                    <mxGeometry relative="1" as="geometry"/>
                </mxCell>
                <mxCell id="YGOA_YTKVvEjFg83ZBXf-34" value="知识处理拼接" style="rounded=0;whiteSpace=wrap;html=1;sketch=1;curveFitting=1;jiggle=2;" parent="WIyWlLk6GJQsqaUBKTNV-1" vertex="1">
                    <mxGeometry x="1019" y="550" width="120" height="30" as="geometry"/>
                </mxCell>
                <mxCell id="YGOA_YTKVvEjFg83ZBXf-39" value="" style="edgeStyle=orthogonalEdgeStyle;rounded=0;orthogonalLoop=1;jettySize=auto;html=1;sketch=1;curveFitting=1;jiggle=2;" parent="WIyWlLk6GJQsqaUBKTNV-1" source="YGOA_YTKVvEjFg83ZBXf-36" target="YGOA_YTKVvEjFg83ZBXf-38" edge="1">
                    <mxGeometry relative="1" as="geometry"/>
                </mxCell>
                <mxCell id="YGOA_YTKVvEjFg83ZBXf-36" value="query拼接" style="rounded=0;whiteSpace=wrap;html=1;sketch=1;curveFitting=1;jiggle=2;" parent="WIyWlLk6GJQsqaUBKTNV-1" vertex="1">
                    <mxGeometry x="1019" y="620" width="120" height="30" as="geometry"/>
                </mxCell>
                <mxCell id="YGOA_YTKVvEjFg83ZBXf-101" value="" style="edgeStyle=orthogonalEdgeStyle;rounded=0;orthogonalLoop=1;jettySize=auto;html=1;sketch=1;curveFitting=1;jiggle=2;" parent="WIyWlLk6GJQsqaUBKTNV-1" source="YGOA_YTKVvEjFg83ZBXf-38" target="YGOA_YTKVvEjFg83ZBXf-100" edge="1">
                    <mxGeometry relative="1" as="geometry"/>
                </mxCell>
                <mxCell id="YGOA_YTKVvEjFg83ZBXf-38" value="调用大模型" style="rounded=0;whiteSpace=wrap;html=1;sketch=1;curveFitting=1;jiggle=2;" parent="WIyWlLk6GJQsqaUBKTNV-1" vertex="1">
                    <mxGeometry x="1019" y="690" width="120" height="30" as="geometry"/>
                </mxCell>
                <mxCell id="YGOA_YTKVvEjFg83ZBXf-41" value="对&lt;div&gt;话&lt;/div&gt;&lt;div&gt;过&lt;/div&gt;&lt;div&gt;程&lt;/div&gt;" style="rounded=0;whiteSpace=wrap;html=1;fillColor=none;strokeColor=none;sketch=1;curveFitting=1;jiggle=2;" parent="WIyWlLk6GJQsqaUBKTNV-1" vertex="1">
                    <mxGeometry x="975" y="365" width="50" height="60" as="geometry"/>
                </mxCell>
                <mxCell id="YGOA_YTKVvEjFg83ZBXf-45" value="" style="edgeStyle=orthogonalEdgeStyle;rounded=0;orthogonalLoop=1;jettySize=auto;html=1;sketch=1;curveFitting=1;jiggle=2;" parent="WIyWlLk6GJQsqaUBKTNV-1" source="YGOA_YTKVvEjFg83ZBXf-42" target="YGOA_YTKVvEjFg83ZBXf-44" edge="1">
                    <mxGeometry relative="1" as="geometry"/>
                </mxCell>
                <mxCell id="YGOA_YTKVvEjFg83ZBXf-42" value="补全Conversation" style="rounded=0;whiteSpace=wrap;html=1;sketch=1;curveFitting=1;jiggle=2;" parent="WIyWlLk6GJQsqaUBKTNV-1" vertex="1">
                    <mxGeometry x="780" y="470" width="120" height="30" as="geometry"/>
                </mxCell>
                <mxCell id="YGOA_YTKVvEjFg83ZBXf-104" value="" style="edgeStyle=orthogonalEdgeStyle;rounded=0;orthogonalLoop=1;jettySize=auto;html=1;sketch=1;curveFitting=1;jiggle=2;" parent="WIyWlLk6GJQsqaUBKTNV-1" source="YGOA_YTKVvEjFg83ZBXf-44" target="YGOA_YTKVvEjFg83ZBXf-103" edge="1">
                    <mxGeometry relative="1" as="geometry"/>
                </mxCell>
                <mxCell id="YGOA_YTKVvEjFg83ZBXf-44" value="存储会话信息" style="rounded=0;whiteSpace=wrap;html=1;sketch=1;curveFitting=1;jiggle=2;" parent="WIyWlLk6GJQsqaUBKTNV-1" vertex="1">
                    <mxGeometry x="780" y="540" width="120" height="30" as="geometry"/>
                </mxCell>
                <mxCell id="YGOA_YTKVvEjFg83ZBXf-48" value="" style="edgeStyle=orthogonalEdgeStyle;rounded=0;orthogonalLoop=1;jettySize=auto;html=1;sketch=1;curveFitting=1;jiggle=2;" parent="WIyWlLk6GJQsqaUBKTNV-1" source="YGOA_YTKVvEjFg83ZBXf-46" target="YGOA_YTKVvEjFg83ZBXf-42" edge="1">
                    <mxGeometry relative="1" as="geometry"/>
                </mxCell>
                <mxCell id="YGOA_YTKVvEjFg83ZBXf-49" style="rounded=0;orthogonalLoop=1;jettySize=auto;html=1;exitX=1;exitY=0.25;exitDx=0;exitDy=0;entryX=0;entryY=0;entryDx=0;entryDy=0;sketch=1;curveFitting=1;jiggle=2;" parent="WIyWlLk6GJQsqaUBKTNV-1" source="YGOA_YTKVvEjFg83ZBXf-46" target="YGOA_YTKVvEjFg83ZBXf-40" edge="1">
                    <mxGeometry relative="1" as="geometry"/>
                </mxCell>
                <mxCell id="YGOA_YTKVvEjFg83ZBXf-46" value="chat" style="rounded=0;whiteSpace=wrap;html=1;sketch=1;curveFitting=1;jiggle=2;" parent="WIyWlLk6GJQsqaUBKTNV-1" vertex="1">
                    <mxGeometry x="780" y="400" width="120" height="30" as="geometry"/>
                </mxCell>
                <mxCell id="YGOA_YTKVvEjFg83ZBXf-50" style="rounded=0;orthogonalLoop=1;jettySize=auto;html=1;exitX=1;exitY=0.5;exitDx=0;exitDy=0;entryX=-0.001;entryY=0.984;entryDx=0;entryDy=0;entryPerimeter=0;sketch=1;curveFitting=1;jiggle=2;" parent="WIyWlLk6GJQsqaUBKTNV-1" source="YGOA_YTKVvEjFg83ZBXf-46" target="YGOA_YTKVvEjFg83ZBXf-40" edge="1">
                    <mxGeometry relative="1" as="geometry">
                        <mxPoint x="910" y="418" as="sourcePoint"/>
                        <mxPoint x="989" y="160" as="targetPoint"/>
                    </mxGeometry>
                </mxCell>
                <mxCell id="YGOA_YTKVvEjFg83ZBXf-75" value="&lt;div class=&quot;value string&quot; tabindex=&quot;0&quot; role=&quot;tooltip&quot; title=&quot;&quot; style=&quot;outline-width: 1px; outline-style: solid; outline-offset: -1px; outline-color: var(--vscode-focusBorder); opacity: 1; color: rgb(206, 145, 120); overflow: hidden; font-family: Consolas, &amp;quot;Courier New&amp;quot;, monospace; max-height: 500px; padding: 4px 5px; white-space: pre-wrap; font-size: 14px; font-style: normal; font-variant-ligatures: normal; font-variant-caps: normal; font-weight: 400; letter-spacing: normal; orphans: 2; text-align: start; text-indent: 0px; text-transform: none; widows: 2; word-spacing: 0px; -webkit-text-stroke-width: 0px; background-color: rgb(37, 37, 38); text-decoration-thickness: initial; text-decoration-style: initial; text-decoration-color: initial;&quot;&gt;&lt;div style=&quot;outline-width: 1px; outline-style: solid; outline-offset: -1px; outline-color: var(--vscode-focusBorder); opacity: 1; overflow: hidden; max-height: 500px; padding: 4px 5px;&quot; title=&quot;&quot; role=&quot;tooltip&quot; tabindex=&quot;0&quot; class=&quot;value string&quot;&gt;'(衍生品)^0.3439109393371567 (研究院)^0.3121781213256866 (&quot;东 证&quot;)^0.17195546966857836 (联系方式 OR &quot;联系 方式&quot; OR (&quot;联系 方式&quot;~2)^0.5)^0.17195546966857836 (&quot;东 证 衍生品 研究院 联系方式&quot;~4)^1.5'&lt;/div&gt;&lt;div style=&quot;opacity: 0; pointer-events: none; color: rgb(204, 204, 204); text-wrap: nowrap; position: absolute; width: 1427px; height: 0px; left: 0px; bottom: 0px;&quot; class=&quot;invisible scrollbar horizontal&quot; aria-hidden=&quot;true&quot; role=&quot;presentation&quot;&gt;&lt;/div&gt;&lt;/div&gt;&lt;div role=&quot;presentation&quot; aria-hidden=&quot;true&quot; class=&quot;invisible scrollbar horizontal&quot; style=&quot;opacity: 0; pointer-events: none; color: rgb(204, 204, 204); font-family: Consolas, &amp;quot;Courier New&amp;quot;, monospace; font-size: 14px; font-style: normal; font-variant-ligatures: normal; font-variant-caps: normal; font-weight: 400; letter-spacing: normal; orphans: 2; text-align: start; text-indent: 0px; text-transform: none; white-space: pre; widows: 2; word-spacing: 0px; -webkit-text-stroke-width: 0px; background-color: rgb(37, 37, 38); text-decoration-thickness: initial; text-decoration-style: initial; text-decoration-color: initial; position: absolute; width: 1173px; height: 0px; left: 0px; bottom: 0px;&quot;&gt;&lt;br&gt;&lt;br&gt;&lt;/div&gt;" style="text;whiteSpace=wrap;html=1;sketch=1;curveFitting=1;jiggle=2;" parent="WIyWlLk6GJQsqaUBKTNV-1" vertex="1">
                    <mxGeometry x="1212.5" y="810" width="485" height="80" as="geometry"/>
                </mxCell>
                <mxCell id="YGOA_YTKVvEjFg83ZBXf-85" value="&lt;div style=&quot;color: #d4d4d4;background-color: #1e1e1e;font-family: Consolas, 'Courier New', monospace;font-weight: normal;font-size: 14px;line-height: 19px;white-space: pre;&quot;&gt;&lt;div&gt;&lt;span style=&quot;color: #ce9178;&quot;&gt;BAAI/bge-large-zh-v1.5&lt;/span&gt;&lt;/div&gt;&lt;/div&gt;" style="text;whiteSpace=wrap;html=1;sketch=1;curveFitting=1;jiggle=2;" parent="WIyWlLk6GJQsqaUBKTNV-1" vertex="1">
                    <mxGeometry x="1350" y="585" width="310" height="40" as="geometry"/>
                </mxCell>
                <mxCell id="YGOA_YTKVvEjFg83ZBXf-100" value="生成引用" style="rounded=0;whiteSpace=wrap;html=1;sketch=1;curveFitting=1;jiggle=2;" parent="WIyWlLk6GJQsqaUBKTNV-1" vertex="1">
                    <mxGeometry x="1019" y="765" width="120" height="30" as="geometry"/>
                </mxCell>
                <mxCell id="YGOA_YTKVvEjFg83ZBXf-102" value="&lt;span style=&quot;color: rgb(206, 145, 120); font-family: Consolas, &amp;quot;Courier New&amp;quot;, monospace; font-size: 14px; font-style: normal; font-variant-ligatures: normal; font-variant-caps: normal; font-weight: 400; letter-spacing: normal; orphans: 2; text-align: start; text-indent: 0px; text-transform: none; white-space: pre-wrap; widows: 2; word-spacing: 0px; -webkit-text-stroke-width: 0px; background-color: rgb(37, 37, 38); text-decoration-thickness: initial; text-decoration-style: initial; text-decoration-color: initial; display: inline !important; float: none;&quot;&gt;You are an intelligent assistant. Please summarize the content of the knowledge base to answer the question. Please list the data in the knowledge base and answer in detail. When all knowledge base content is irrelevant to the question, your answer must include the sentence &quot;The answer you are looking for is not found in the knowledge base!&quot; Answers need to consider chat history.\n      Here is the knowledge base:\n      东证衍生品研究院\n联系人：梁爽\n电话：8621-63325888-1592\n传真：8621-33315862\n&lt;/span&gt;" style="text;whiteSpace=wrap;html=1;sketch=1;curveFitting=1;jiggle=2;" parent="WIyWlLk6GJQsqaUBKTNV-1" vertex="1">
                    <mxGeometry x="1212.5" y="633" width="475" height="160" as="geometry"/>
                </mxCell>
                <mxCell id="YGOA_YTKVvEjFg83ZBXf-103" value="返回结果" style="rounded=0;whiteSpace=wrap;html=1;sketch=1;curveFitting=1;jiggle=2;" parent="WIyWlLk6GJQsqaUBKTNV-1" vertex="1">
                    <mxGeometry x="780" y="605" width="120" height="30" as="geometry"/>
                </mxCell>
                <mxCell id="YGOA_YTKVvEjFg83ZBXf-105" value="" style="group;strokeColor=default;sketch=1;curveFitting=1;jiggle=2;" parent="WIyWlLk6GJQsqaUBKTNV-1" vertex="1" connectable="0">
                    <mxGeometry x="1320" y="118" width="320" height="425" as="geometry"/>
                </mxCell>
                <mxCell id="YGOA_YTKVvEjFg83ZBXf-56" value="" style="edgeStyle=orthogonalEdgeStyle;rounded=0;orthogonalLoop=1;jettySize=auto;html=1;sketch=1;curveFitting=1;jiggle=2;" parent="YGOA_YTKVvEjFg83ZBXf-105" source="YGOA_YTKVvEjFg83ZBXf-53" target="YGOA_YTKVvEjFg83ZBXf-55" edge="1">
                    <mxGeometry relative="1" as="geometry"/>
                </mxCell>
                <mxCell id="YGOA_YTKVvEjFg83ZBXf-53" value="ques预处理拼接" style="rounded=0;whiteSpace=wrap;html=1;sketch=1;curveFitting=1;jiggle=2;" parent="YGOA_YTKVvEjFg83ZBXf-105" vertex="1">
                    <mxGeometry width="120" height="30" as="geometry"/>
                </mxCell>
                <mxCell id="YGOA_YTKVvEjFg83ZBXf-82" value="" style="edgeStyle=orthogonalEdgeStyle;rounded=0;orthogonalLoop=1;jettySize=auto;html=1;sketch=1;curveFitting=1;jiggle=2;" parent="YGOA_YTKVvEjFg83ZBXf-105" source="YGOA_YTKVvEjFg83ZBXf-55" target="YGOA_YTKVvEjFg83ZBXf-81" edge="1">
                    <mxGeometry relative="1" as="geometry"/>
                </mxCell>
                <mxCell id="YGOA_YTKVvEjFg83ZBXf-55" value="检索" style="rounded=0;whiteSpace=wrap;html=1;sketch=1;curveFitting=1;jiggle=2;" parent="YGOA_YTKVvEjFg83ZBXf-105" vertex="1">
                    <mxGeometry y="70" width="120" height="30" as="geometry"/>
                </mxCell>
                <mxCell id="YGOA_YTKVvEjFg83ZBXf-81" value="ES检索" style="rounded=0;whiteSpace=wrap;html=1;sketch=1;curveFitting=1;jiggle=2;" parent="YGOA_YTKVvEjFg83ZBXf-105" vertex="1">
                    <mxGeometry y="140" width="120" height="30" as="geometry"/>
                </mxCell>
                <mxCell id="YGOA_YTKVvEjFg83ZBXf-87" value="" style="edgeStyle=orthogonalEdgeStyle;rounded=0;orthogonalLoop=1;jettySize=auto;html=1;sketch=1;curveFitting=1;jiggle=2;" parent="YGOA_YTKVvEjFg83ZBXf-105" source="YGOA_YTKVvEjFg83ZBXf-84" target="YGOA_YTKVvEjFg83ZBXf-86" edge="1">
                    <mxGeometry relative="1" as="geometry"/>
                </mxCell>
                <mxCell id="YGOA_YTKVvEjFg83ZBXf-89" value="" style="edgeStyle=orthogonalEdgeStyle;rounded=0;orthogonalLoop=1;jettySize=auto;html=1;sketch=1;curveFitting=1;jiggle=2;" parent="YGOA_YTKVvEjFg83ZBXf-105" source="YGOA_YTKVvEjFg83ZBXf-84" target="YGOA_YTKVvEjFg83ZBXf-88" edge="1">
                    <mxGeometry relative="1" as="geometry"/>
                </mxCell>
                <mxCell id="YGOA_YTKVvEjFg83ZBXf-84" value="向量检索" style="rounded=0;whiteSpace=wrap;html=1;sketch=1;curveFitting=1;jiggle=2;" parent="YGOA_YTKVvEjFg83ZBXf-105" vertex="1">
                    <mxGeometry y="200" width="120" height="30" as="geometry"/>
                </mxCell>
                <mxCell id="YGOA_YTKVvEjFg83ZBXf-86" value="query向量化（bge)" style="rounded=0;whiteSpace=wrap;html=1;sketch=1;curveFitting=1;jiggle=2;" parent="YGOA_YTKVvEjFg83ZBXf-105" vertex="1">
                    <mxGeometry x="170" y="200" width="120" height="30" as="geometry"/>
                </mxCell>
                <mxCell id="YGOA_YTKVvEjFg83ZBXf-91" value="" style="edgeStyle=orthogonalEdgeStyle;rounded=0;orthogonalLoop=1;jettySize=auto;html=1;sketch=1;curveFitting=1;jiggle=2;" parent="YGOA_YTKVvEjFg83ZBXf-105" source="YGOA_YTKVvEjFg83ZBXf-88" target="YGOA_YTKVvEjFg83ZBXf-90" edge="1">
                    <mxGeometry relative="1" as="geometry"/>
                </mxCell>
                <mxCell id="YGOA_YTKVvEjFg83ZBXf-88" value="聚合检索结果" style="rounded=0;whiteSpace=wrap;html=1;sketch=1;curveFitting=1;jiggle=2;" parent="YGOA_YTKVvEjFg83ZBXf-105" vertex="1">
                    <mxGeometry y="265" width="120" height="30" as="geometry"/>
                </mxCell>
                <mxCell id="YGOA_YTKVvEjFg83ZBXf-99" value="" style="edgeStyle=orthogonalEdgeStyle;rounded=0;orthogonalLoop=1;jettySize=auto;html=1;sketch=1;curveFitting=1;jiggle=2;" parent="YGOA_YTKVvEjFg83ZBXf-105" source="YGOA_YTKVvEjFg83ZBXf-90" target="YGOA_YTKVvEjFg83ZBXf-93" edge="1">
                    <mxGeometry relative="1" as="geometry"/>
                </mxCell>
                <mxCell id="YGOA_YTKVvEjFg83ZBXf-90" value="重排序" style="rounded=0;whiteSpace=wrap;html=1;sketch=1;curveFitting=1;jiggle=2;" parent="YGOA_YTKVvEjFg83ZBXf-105" vertex="1">
                    <mxGeometry y="330" width="120" height="30" as="geometry"/>
                </mxCell>
                <mxCell id="YGOA_YTKVvEjFg83ZBXf-97" value="" style="group;strokeColor=default;sketch=1;curveFitting=1;jiggle=2;" parent="YGOA_YTKVvEjFg83ZBXf-105" vertex="1" connectable="0">
                    <mxGeometry x="200" y="265" width="120" height="160" as="geometry"/>
                </mxCell>
                <mxCell id="YGOA_YTKVvEjFg83ZBXf-94" value="" style="edgeStyle=orthogonalEdgeStyle;rounded=0;orthogonalLoop=1;jettySize=auto;html=1;sketch=1;curveFitting=1;jiggle=2;" parent="YGOA_YTKVvEjFg83ZBXf-97" source="YGOA_YTKVvEjFg83ZBXf-92" target="YGOA_YTKVvEjFg83ZBXf-93" edge="1">
                    <mxGeometry relative="1" as="geometry"/>
                </mxCell>
                <mxCell id="YGOA_YTKVvEjFg83ZBXf-92" value="向量相似度（0.7)" style="rounded=0;whiteSpace=wrap;html=1;sketch=1;curveFitting=1;jiggle=2;" parent="YGOA_YTKVvEjFg83ZBXf-97" vertex="1">
                    <mxGeometry width="120" height="30" as="geometry"/>
                </mxCell>
                <mxCell id="YGOA_YTKVvEjFg83ZBXf-96" value="" style="edgeStyle=orthogonalEdgeStyle;rounded=0;orthogonalLoop=1;jettySize=auto;html=1;sketch=1;curveFitting=1;jiggle=2;" parent="YGOA_YTKVvEjFg83ZBXf-97" source="YGOA_YTKVvEjFg83ZBXf-93" target="YGOA_YTKVvEjFg83ZBXf-95" edge="1">
                    <mxGeometry relative="1" as="geometry"/>
                </mxCell>
                <mxCell id="YGOA_YTKVvEjFg83ZBXf-93" value="字面相似度(0.3)" style="rounded=0;whiteSpace=wrap;html=1;sketch=1;curveFitting=1;jiggle=2;" parent="YGOA_YTKVvEjFg83ZBXf-97" vertex="1">
                    <mxGeometry y="65" width="120" height="30" as="geometry"/>
                </mxCell>
                <mxCell id="YGOA_YTKVvEjFg83ZBXf-95" value="计算最终相似度" style="rounded=0;whiteSpace=wrap;html=1;sketch=1;curveFitting=1;jiggle=2;" parent="YGOA_YTKVvEjFg83ZBXf-97" vertex="1">
                    <mxGeometry y="130" width="120" height="30" as="geometry"/>
                </mxCell>
                <mxCell id="YGOA_YTKVvEjFg83ZBXf-108" style="rounded=0;orthogonalLoop=1;jettySize=auto;html=1;exitX=1;exitY=0.5;exitDx=0;exitDy=0;entryX=0;entryY=0.25;entryDx=0;entryDy=0;sketch=1;curveFitting=1;jiggle=2;" parent="WIyWlLk6GJQsqaUBKTNV-1" source="YGOA_YTKVvEjFg83ZBXf-81" target="YGOA_YTKVvEjFg83ZBXf-72" edge="1">
                    <mxGeometry relative="1" as="geometry"/>
                </mxCell>
            </root>
        </mxGraphModel>
    </diagram>
</mxfile>